PathFileType	4	(X/Y/Z)	pose_F01_0-94.trc
DataRate	CameraRate	NumFrames	NumMarkers	Units	OrigDataRate	OrigDataStartFrame	OrigNumFrames
30	30	7	21	m	30	0	94
Frame#	Time	CHip			RHip			RKnee			RAnkle			RBigToe			RSmallToe			RHeel			LHip			LKnee			LAnkle			LBigToe			LSmallToe			LHeel			Neck			Nose			RShoulder			RElbow			RWrist			LShoulder			LElbow			LWrist			
		X1	Y1	Z1	X2	Y2	Z2	X3	Y3	Z3	X4	Y4	Z4	X5	Y5	Z5	X6	Y6	Z6	X7	Y7	Z7	X8	Y8	Z8	X9	Y9	Z9	X10	Y10	Z10	X11	Y11	Z11	X12	Y12	Z12	X13	Y13	Z13	X14	Y14	Z14	X15	Y15	Z15	X16	Y16	Z16	X17	Y17	Z17	X18	Y18	Z18	X19	Y19	Z19	X20	Y20	Z20	X21	Y21	Z21	
0	0.0	-0.2894135756892639	1.8597138504317037	-0.6356838998510624	-0.2995430344051021	1.8591426934936373	-0.5752373926623168	-0.2623334846356691	1.7126861254168244	-0.41406628357860437													-0.25889109371283536	1.8681533932806549	-0.7477005779832446	-0.25387259118227046	1.7163349301173032	-0.7071641754880265													-0.29587385498638946	2.0490173948666146	-0.6768794811950771	-0.2737512805797764	2.1121654675069323	-0.6290183665575817	-0.318506519517748	2.043175867233972	-0.5889567019010956	-1.531051779575193	1.8643626559444988	0.728552447712222	-0.3288423040392245	1.8718473603827235	-0.5291079599297277	-0.2653419690725238	2.0554385923097382	-0.737468725441283	-0.2395146036331106	1.9544795597057034	-0.7799788476913249	-0.2208131446744968	1.8734356384617776	-0.7544271028562518
1	0.03333333333333333	-0.28909092349543347	1.8623682623245439	-0.6358691072277753	-0.29947811906790167	1.861476960943181	-0.5755248350831027	-0.2623334846356691	1.7126861254168244	-0.41406628357860437													-0.2600460766843217	1.870348479344734	-0.7428521871662497	-0.25387259118227046	1.7163349301173032	-0.7071641754880265													-0.2950211645843487	2.048770365066862	-0.6739748872289543	-0.27373310198485534	2.112159560828452	-0.628990840963847	-0.31758630224784334	2.0429710863636923	-0.5859950598990039	-1.5328230880830997	1.8641000101644971	0.7306969344311018	-0.32765996977319917	1.8731324500092783	-0.5260718742152205	-0.2653867410524564	2.0552898915841196	-0.7374437423781803	-0.24161195478816677	1.955451567316336	-0.7778788395898557	-0.2239497025670282	1.8743501687133015	-0.7554816904677129
2	0.06666666666666667	-0.28876827130160304	1.865022674217384	-0.6360543146044882	-0.29941320373070124	1.8638112283927246	-0.5758122775038886	-0.2623334846356691	1.7126861254168244	-0.41406628357860437													-0.2612010596558081	1.8725435654088132	-0.7380037963492547	-0.25387259118227046	1.7163349301173032	-0.7071641754880265													-0.2941684741823079	2.048523335267109	-0.6710702932628314	-0.2737149233899343	2.1121536541499712	-0.6289633153701124	-0.3166660849779387	2.0427663054934126	-0.5830334178969122	-1.5345943965910065	1.8638373643844954	0.7328414211499816	-0.32647763550717385	1.8744175396358331	-0.5230357885007133	-0.26543151303238904	2.055141190858501	-0.7374187593150777	-0.24370930594322293	1.9564235749269685	-0.7757788314883866	-0.2270862604595596	1.8752646989648254	-0.7565362780791739
3	0.1	-0.2884456191077726	1.8676770861102243	-0.6362395219812012	-0.2993482883935008	1.8661454958422683	-0.5760997199246746	-0.2623334846356691	1.7126861254168244	-0.41406628357860437													-0.26235604262729445	1.8747386514728923	-0.7331554055322598	-0.25387259118227046	1.7163349301173032	-0.7071641754880265													-0.2933157837802671	2.0482763054673563	-0.6681656992967085	-0.27369674479501327	2.1121477474714907	-0.6289357897763778	-0.31574586770803403	2.042561524623133	-0.5800717758948205	-1.5363657050989132	1.8635747186044938	0.7349859078688614	-0.3252953012411485	1.875702629262388	-0.519999702786206	-0.2654762850123217	2.054992490132882	-0.7373937762519751	-0.2458066570982791	1.957395582537601	-0.7736788233869174	-0.230222818352091	1.8761792292163493	-0.7575908656906349
4	0.13333333333333333	-0.2881229669139422	1.8703314980030645	-0.636424729357914	-0.2992833730563004	1.868479763291812	-0.5763871623454605	-0.2623334846356691	1.7126861254168244	-0.41406628357860437													-0.2635110255987808	1.8769337375369715	-0.7283070147152648	-0.25387259118227046	1.7163349301173032	-0.7071641754880265													-0.29246309337822635	2.0480292756676035	-0.6652611053305857	-0.27367856620009223	2.11214184079301	-0.6289082641826431	-0.3148256504381294	2.0423567437528534	-0.5771101338927288	-1.53813701360682	1.863312072824492	0.7371303945877412	-0.3241129669751232	1.8769877188889428	-0.5169636170716987	-0.2655210569922543	2.0548437894072635	-0.7373687931888725	-0.24790400825333525	1.9583675901482336	-0.7715788152854482	-0.23335937624462239	1.8770937594678732	-0.758645453302096
5	0.16666666666666666	-0.28780031472011175	1.8729859098959047	-0.636609936734627	-0.29921845771909994	1.8708140307413557	-0.5766746047662464	-0.2623334846356691	1.7126861254168244	-0.41406628357860437													-0.2646660085702672	1.8791288236010506	-0.7234586238982699	-0.25387259118227046	1.7163349301173032	-0.7071641754880265													-0.29161040297618557	2.0477822458678507	-0.6623565113644628	-0.2736603876051712	2.1121359341145296	-0.6288807385889085	-0.3139054331682247	2.0421519628825737	-0.5741484918906371	-1.5399083221147267	1.8630494270444904	0.739274881306621	-0.3229306327090979	1.8782728085154976	-0.5139275313571915	-0.26556582897218695	2.054695088681645	-0.7373438101257699	-0.2500013594083914	1.9593395977588661	-0.7694788071839791	-0.23649593413715378	1.878008289719397	-0.759700040913557
6	0.2	-0.2874776625262813	1.875640321788745	-0.6367951441113399	-0.2991535423818995	1.8731482981908993	-0.5769620471870324	-0.2623334846356691	1.7126861254168244	-0.41406628357860437													-0.26582099154175354	1.8813239096651297	-0.7186102330812749	-0.25387259118227046	1.7163349301173032	-0.7071641754880265													-0.2907577125741448	2.047535216068098	-0.65945191739834	-0.27364220901025016	2.112130027436049	-0.6288532129951738	-0.31298521589832007	2.041947182012294	-0.5711868498885454	-1.5416796306226335	1.8627867812644887	0.7414193680255008	-0.32174829844307257	1.8795578981420524	-0.5108914456426843	-0.2656106009521196	2.054546387956026	-0.7373188270626673	-0.25209871056344757	1.9603116053694987	-0.7673787990825099	-0.23963249202968517	1.878922819970921	-0.7607546285250181
